<?xml version="1.0" encoding="UTF-8" standalone="no" ?>
<!DOCTYPE svg PUBLIC "-//W3C//DTD SVG 1.1//EN" "http://www.w3.org/Graphics/SVG/1.1/DTD/svg11.dtd">
<svg xmlns="http://www.w3.org/2000/svg" xmlns:xlink="http://www.w3.org/1999/xlink" version="1.1" width="640" height="303" viewBox="0 0 640 303" xml:space="preserve">
<desc>Created with Fabric.js 3.6.6</desc>
<defs>
</defs>
<g transform="matrix(0.68 0 0 0.68 321.16 152.34)"  >
<g style=""   >
		<g transform="matrix(1 0 0 1 -420 -344)"  >
<rect style="stroke: none; stroke-width: 1; stroke-dasharray: none; stroke-linecap: butt; stroke-dashoffset: 0; stroke-linejoin: miter; stroke-miterlimit: 4; fill: rgb(255,255,255); fill-rule: nonzero; opacity: 1;"  x="-50" y="-50" rx="0" ry="0" width="100" height="100" />
</g>
		<g transform="matrix(29.5 0 0 29.5 2.01 -0.98)"  >
<path style="stroke: none; stroke-width: 0; stroke-dasharray: none; stroke-linecap: butt; stroke-dashoffset: 0; stroke-linejoin: miter; stroke-miterlimit: 4; fill: rgb(0,0,0); fill-rule: nonzero; opacity: 1;"  transform=" translate(-16, -16)" d="M 31.76 16 c -0.077 -4.251 -3.588 -7.636 -7.839 -7.563 c -0.391 0 -0.801 0.032 -1.203 0.068 c -3.359 0.495 -5.599 2.907 -6.839 4.76 c -1.265 -1.853 -3.52 -4.265 -6.853 -4.76 c -0.401 -0.036 -0.797 -0.068 -1.199 -0.068 c -4.249 -0.063 -7.749 3.317 -7.828 7.563 c 0.079 4.245 3.579 7.625 7.828 7.563 c 0.401 0 0.797 -0.032 1.224 -0.084 c 3.36 -0.479 5.599 -2.891 6.855 -4.744 c 1.265 1.853 3.505 4.265 6.853 4.76 c 0.412 0.036 0.803 0.068 1.213 0.068 c 4.229 0.041 7.709 -3.333 7.787 -7.563 z M 8.64 20.803 c -0.265 0.052 -0.572 0.052 -0.837 0.052 c -2.767 0.057 -5.057 -2.12 -5.136 -4.881 c 0.088 -2.765 2.385 -4.943 5.145 -4.88 c 0.267 0 0.563 0.027 0.839 0.052 c 3.161 0.469 5.095 3.563 5.751 4.828 c -0.667 1.267 -2.599 4.401 -5.751 4.829 z M 17.333 16 c 0.651 -1.24 2.588 -4.36 5.745 -4.828 c 0.271 -0.052 0.561 -0.052 0.828 -0.052 c 2.776 -0.084 5.088 2.104 5.161 4.88 c -0.089 2.76 -2.385 4.937 -5.147 4.88 c -0.271 0 -0.561 -0.025 -0.828 -0.052 c -3.145 -0.468 -5.093 -3.588 -5.744 -4.828 z M 5.615 16.787 h 4.719 v -1.547 h -4.708 v 1.547 z M 24.453 16.787 h 1.588 v -1.547 h -1.604 v -1.589 h -1.505 v 1.604 h -1.599 v 1.532 h 1.599 v 1.573 h 1.537 v -1.557 z M 32 9.412 c 0 0.4 -0.292 0.68" stroke-linecap="round" />
</g>
</g>
</g>
</svg>